<svg xmlns="http://www.w3.org/2000/svg" width="40" height="40" fill="none" viewBox="0 0 40 40"><g filter="url(#filter0_d)"><circle cx="20" cy="16" r="16" fill="#fff"/></g><path fill="url(#paint0_linear)" d="M34 16C34 23.7321 27.7321 30 20 30C12.2679 30 6 23.7321 6 16C6 8.26791 12.2679 2 20 2C27.7321 2 34 8.26791 34 16Z"/><path fill="url(#paint1_linear)" d="M34 16C34 23.7321 27.7321 30 20 30C12.2679 30 6 23.7321 6 16C6 8.26791 12.2679 2 20 2C27.7321 2 34 8.26791 34 16Z"/><path fill="url(#paint2_linear)" d="M20 8.45312H14.2149C13.2419 8.45312 12.4531 9.24189 12.4531 10.2149V21.7851C12.4531 22.7581 13.2419 23.5469 14.2149 23.5469H25.7851C26.7581 23.5469 27.5469 22.7581 27.5469 21.7851V10.2149C27.5469 9.24189 26.7581 8.45312 25.7851 8.45312H20Z"/><path fill="url(#paint3_linear)" d="M19.9323 15.0154L20 14.4965L18.7339 14.8195L16.7572 14.4965L17.1281 15.2292L14.2219 15.9705V21.7781H19.5578L20 21.4833L20.0927 21.0874L20.4422 21.7781H25.7781V15.9705L19.9323 15.0154Z"/><path fill="url(#paint4_linear)" d="M20.4422 21.7781H19.5578V19.9151L20.3965 19.5376L17.4485 18.211L19.5578 17.2619V15.3809H20.4422V17.8335L19.6035 18.211L22.5515 19.5376L20.4422 20.4869V21.7781Z"/><path fill="url(#paint5_linear)" d="M16.8751 11.5485C16.8751 12.2813 16.2813 12.8751 15.5485 12.8751C14.8158 12.8751 14.2219 12.2813 14.2219 11.5485C14.2219 10.8158 14.8158 10.2219 15.5485 10.2219C16.2813 10.2219 16.8751 10.8158 16.8751 11.5485Z"/><path fill="url(#paint6_linear)" d="M25.778 11.5485C25.778 12.2813 25.1841 12.8751 24.4514 12.8751C23.7186 12.8751 23.1248 12.2813 23.1248 11.5485C23.1248 10.8158 23.7186 10.2219 24.4514 10.2219C25.1841 10.2219 25.778 10.8158 25.778 11.5485Z"/><path fill="url(#paint7_linear)" d="M20 10.2219H17.7595V12.8751H22.2405V10.2219H20Z" opacity=".55"/><path fill="url(#paint8_linear)" d="M16.4329 13.7595H14.2219V15.9705H16.4329L17.0225 14.865L16.4329 13.7595Z"/><path fill="url(#paint9_linear)" d="M25.778 15.9705V13.7595H23.567L22.6826 14.865L23.567 15.9705H25.778Z"/><path fill="url(#paint10_linear)" d="M23.567 15.9705V13.7595H19.9999L19.1155 14.865L19.9999 15.9705H23.567Z"/><path fill="url(#paint11_linear)" d="M16.4329 13.7595H19.9999V15.9705H16.4329V13.7595Z"/><defs><filter id="filter0_d" width="40" height="40" x="0" y="0" color-interpolation-filters="sRGB" filterUnits="userSpaceOnUse"><feFlood flood-opacity="0" result="BackgroundImageFix"/><feColorMatrix in="SourceAlpha" type="matrix" values="0 0 0 0 0 0 0 0 0 0 0 0 0 0 0 0 0 0 127 0"/><feOffset dy="4"/><feGaussianBlur stdDeviation="2"/><feColorMatrix type="matrix" values="0 0 0 0 0 0 0 0 0 0 0 0 0 0 0 0 0 0 0.09 0"/><feBlend in2="BackgroundImageFix" mode="normal" result="effect1_dropShadow"/><feBlend in="SourceGraphic" in2="effect1_dropShadow" mode="normal" result="shape"/></filter><linearGradient id="paint0_linear" x1="9.957" x2="30.044" y1="4.739" y2="30" gradientUnits="userSpaceOnUse"><stop stop-color="#EEFAFF"/><stop offset="1" stop-color="#9DE2FF"/></linearGradient><linearGradient id="paint1_linear" x1="10.101" x2="29.899" y1="6.101" y2="25.899" gradientUnits="userSpaceOnUse"><stop stop-color="#fff"/><stop offset="1" stop-color="#F6D4B4"/></linearGradient><linearGradient id="paint2_linear" x1="12.453" x2="27.547" y1="8.453" y2="23.547" gradientUnits="userSpaceOnUse"><stop stop-color="#1A51A3"/><stop offset="1" stop-color="#46000D"/></linearGradient><linearGradient id="paint3_linear" x1="15.659" x2="24.341" y1="14.533" y2="23.215" gradientUnits="userSpaceOnUse"><stop stop-color="#fff"/><stop offset="1" stop-color="#97E4FD"/></linearGradient><linearGradient id="paint4_linear" x1="18.18" x2="21.82" y1="16.759" y2="20.4" gradientUnits="userSpaceOnUse"><stop stop-color="#71D1FE"/><stop offset="1" stop-color="#2196DC"/></linearGradient><linearGradient id="paint5_linear" x1="14.611" x2="16.487" y1="10.611" y2="12.487" gradientUnits="userSpaceOnUse"><stop stop-color="#64FF2E"/><stop offset="1" stop-color="#3692FF"/></linearGradient><linearGradient id="paint6_linear" x1="23.513" x2="25.389" y1="10.611" y2="12.487" gradientUnits="userSpaceOnUse"><stop stop-color="#64FF2E"/><stop offset="1" stop-color="#3692FF"/></linearGradient><linearGradient id="paint7_linear" x1="18.416" x2="20.061" y1="10.611" y2="13.389" gradientUnits="userSpaceOnUse"><stop stop-color="#64FF2E"/><stop offset="1" stop-color="#3692FF"/></linearGradient><linearGradient id="paint8_linear" x1="14.222" x2="16.433" y1="13.759" y2="15.97" gradientUnits="userSpaceOnUse"><stop stop-color="#71D1FE"/><stop offset="1" stop-color="#2196DC"/></linearGradient><linearGradient id="paint9_linear" x1="23.567" x2="25.778" y1="13.759" y2="15.97" gradientUnits="userSpaceOnUse"><stop stop-color="#71D1FE"/><stop offset="1" stop-color="#2196DC"/></linearGradient><linearGradient id="paint10_linear" x1="20.339" x2="23.228" y1="13.421" y2="16.309" gradientUnits="userSpaceOnUse"><stop stop-color="#186C95"/><stop offset="1" stop-color="#093F61"/></linearGradient><linearGradient id="paint11_linear" x1="16.772" x2="19.661" y1="13.421" y2="16.309" gradientUnits="userSpaceOnUse"><stop stop-color="#2196DC"/><stop offset="1" stop-color="#135772"/></linearGradient></defs></svg>