<svg xmlns="http://www.w3.org/2000/svg" width="40" height="40" fill="none" viewBox="0 0 40 40"><g filter="url(#filter0_d)"><path fill="#fff" d="M36 16C36 24.8367 28.8367 32 20 32C11.1633 32 4 24.8367 4 16C4 7.16333 11.1633 0 20 0C28.8367 0 36 7.16333 36 16Z"/></g><path fill="url(#paint0_linear)" d="M34 16C34 23.7321 27.7321 30 20 30C12.2679 30 6 23.7321 6 16C6 8.26791 12.2679 2 20 2C27.7321 2 34 8.26791 34 16Z"/><path fill="#FF4F19" d="M25.4163 11.3858L24.7863 10.3523L24.328 11.4726C23.9167 12.4781 23.3275 13.0547 22.7115 13.0547C21.5379 13.0548 20.9941 11.5636 20.8545 10.61C20.6536 9.23711 21.0138 7.82985 21.6121 6.59805C21.6122 6.59793 22.2607 5.26263 22.2607 5.26263L20.8597 5.7536C18.3573 6.6305 16.2602 8.34264 14.7949 10.7049C13.3658 13.0089 12.6135 15.8035 12.6194 18.7853C12.6194 21.0509 13.4221 22.9601 14.9405 24.3063C16.2801 25.494 18.0769 26.1481 19.9998 26.1481C21.9227 26.1481 23.7194 25.494 25.059 24.3063C26.5775 22.9601 27.3801 21.0509 27.3801 18.7853C27.3801 15.8177 26.8112 13.674 25.4163 11.3858Z"/><path fill="#FF7800" d="M14.7949 10.7048C13.3658 13.0088 12.6135 15.8034 12.6194 18.7852C12.6194 21.0508 13.4221 22.96 14.9405 24.3063C16.2801 25.4939 18.0769 26.1481 19.9998 26.1481V6.09528C17.8761 7.03986 16.0889 8.61858 14.7949 10.7048Z"/><path fill="#00CA3F" d="M20.4315 14.6576L20.0217 14.3765L19.6119 14.6576C19.475 14.7514 16.2583 16.991 16.2583 19.9098C16.2583 22.8287 19.475 25.0682 19.6119 25.1621L20.0217 25.4431L20.4315 25.1621C20.5684 25.0682 23.7851 22.8287 23.7851 19.9098C23.7851 16.991 20.5684 14.7515 20.4315 14.6576Z"/><path fill="#6CEA66" d="M20.0217 14.3765L19.6119 14.6576C19.475 14.7514 16.2583 16.991 16.2583 19.9098C16.2583 22.8287 19.475 25.0682 19.6119 25.1621L20.0217 25.4431V14.3765Z"/><path fill="#007842" d="M20.746 20.0364H19.2969V29.9763L20.0215 29.9977L20.746 29.9763V20.0364Z"/><path fill="#009A2D" d="M20.0215 20.0364H19.2969V29.9811L20.0215 29.9977V20.0364Z"/><defs><filter id="filter0_d" width="40" height="40" x="0" y="0" color-interpolation-filters="sRGB" filterUnits="userSpaceOnUse"><feFlood flood-opacity="0" result="BackgroundImageFix"/><feColorMatrix in="SourceAlpha" type="matrix" values="0 0 0 0 0 0 0 0 0 0 0 0 0 0 0 0 0 0 127 0"/><feOffset dy="4"/><feGaussianBlur stdDeviation="2"/><feColorMatrix type="matrix" values="0 0 0 0 0 0 0 0 0 0 0 0 0 0 0 0 0 0 0.09 0"/><feBlend in2="BackgroundImageFix" mode="normal" result="effect1_dropShadow"/><feBlend in="SourceGraphic" in2="effect1_dropShadow" mode="normal" result="shape"/></filter><linearGradient id="paint0_linear" x1="9.043" x2="30.044" y1="2" y2="31.522" gradientUnits="userSpaceOnUse"><stop stop-color="#fff"/><stop offset="1" stop-color="#FBB"/></linearGradient></defs></svg>